<?xml version="1.0" encoding="utf-8"?>
<!-- Generator: Adobe Illustrator 24.2.0, SVG Export Plug-In . SVG Version: 6.00 Build 0)  -->
<svg version="1.1" id="Warstwa_1" xmlns="http://www.w3.org/2000/svg" xmlns:xlink="http://www.w3.org/1999/xlink" x="0px" y="0px"
	 viewBox="0 0 707.1 200" style="enable-background:new 0 0 707.1 200;" xml:space="preserve">
<style type="text/css">
	.st0{fill-rule:evenodd;clip-rule:evenodd;fill:#458BCA;}
	.st1{fill:#FFFFFF;}
	.st2{fill:#224463;}
	.st3{fill:#458BCA;}
</style>
<g>
	<g>
		<g id="Forme_1_5_">
			<g>
				<circle class="st0" cx="74.9" cy="100" r="74.9"/>
			</g>
		</g>
		
			<ellipse transform="matrix(0.1602 -0.9871 0.9871 0.1602 -8.7573 107.5927)" class="st1" cx="58.9" cy="58.9" rx="13.3" ry="13.3"/>
		
			<rect x="57.3" y="122.4" transform="matrix(0.9387 -0.3446 0.3446 0.9387 -38.1864 31.7703)" class="st1" width="25.9" height="1.9"/>
		
			<ellipse transform="matrix(0.1602 -0.9871 0.9871 0.1602 -91.2433 155.3316)" class="st1" cx="45.7" cy="131.3" rx="13.3" ry="13.3"/>
		<polygon class="st1" points="63.9,66.3 64.8,64.7 88.1,96.4 87.2,98 		"/>
		<path class="st1" d="M101.9,90.1c-11.9,0-21.6,9.7-21.6,21.6c0,11.9,9.7,21.6,21.6,21.6c11.9,0,21.6-9.7,21.6-21.6
			C123.5,99.8,113.8,90.1,101.9,90.1z M101.9,131c-10.7,0-19.4-8.7-19.4-19.4c0-10.7,8.7-19.4,19.4-19.4c10.7,0,19.4,8.7,19.4,19.4
			C121.3,122.4,112.6,131,101.9,131z"/>
	</g>
	<g>
		<path class="st2" d="M170,97.8l32.6-34.5l-19.3-33.8h10.1l8.8,15.5c2.3,4.1,3.7,6.4,4,7.1c0.8,1.5,1.7,3.3,2.7,5.4
			c2.3-3.1,5.9-7.2,10.7-12.2l15-15.8h11.9l-33,35.3l18.7,33h-9.9l-11.1-20c-1.1-2-2.3-4.5-3.8-7.5c-1.7,2.3-3.7,4.7-6.1,7.2
			l-19,20.3H170z"/>
		<path class="st2" d="M258.3,97.8L271,37.3h-22.4l1.6-7.8h53.7l-1.6,7.8h-22.2l-12.6,60.5H258.3z"/>
		<path class="st2" d="M299.4,97.8l14.3-68.3h28.6c5.7,0,9.9,0.5,12.9,1.4c2.9,0.9,5.2,2.7,6.9,5.3c1.7,2.6,2.5,5.9,2.5,9.9
			c0,5.6-1.8,10.2-5.4,13.8c-3.6,3.7-9.5,6-17.6,7.1c2.5,1.8,4.4,3.6,5.6,5.4c2.9,4,5.2,8.2,6.9,12.4l5.2,12.9h-10.2l-4.9-12.7
			c-1.8-4.6-3.8-8.6-6.1-11.9c-1.6-2.3-3.1-3.9-4.8-4.6c-1.6-0.7-4.2-1.1-7.9-1.1h-10.6l-6.3,30.3H299.4z M316.4,60.1H329
			c5.8,0,9.6-0.1,11.4-0.2c3.4-0.3,6.3-1.1,8.5-2.3c2.2-1.2,3.9-2.8,5.1-4.9c1.2-2,1.8-4.3,1.8-6.6c0-2-0.5-3.7-1.4-5.2
			c-0.9-1.5-2.1-2.5-3.5-3c-1.5-0.5-3.9-0.8-7.5-0.8h-22.3L316.4,60.1z"/>
		<path class="st2" d="M368.1,97.8l14.3-68.3h49.3l-1.6,7.8h-40.1l-4.5,21.2h39.1l-1.6,7.8h-39.1l-4.9,23.8h43l-1.6,7.7H368.1z"/>
		<path class="st2" d="M470.6,97.8h-13.3l-2.5-57.1L444,97.8h-12.7l14.3-68.3h20l2.1,47.8L491,29.6h20.3L497,97.8h-12.8l13.5-56.6
			L470.6,97.8z"/>
		<path class="st2" d="M510.8,97.8l14.3-68.3h50.6L573.3,41h-36.6l-3.3,15.5h35.4l-2.4,11.4h-35.4l-4.3,18.5h39.7l-2.4,11.4H510.8z"
			/>
		<path class="st2" d="M576.6,75.7L590,75c0.2,4.3,0.9,7.1,2.2,8.6c2,2.4,5.8,3.6,11.4,3.6c4.6,0,7.9-0.8,10-2.5
			c2-1.6,3.1-3.6,3.1-6c0-2-0.8-3.7-2.5-5.1c-1.2-1-4.4-2.7-9.7-5c-5.3-2.3-9.2-4.2-11.6-5.8c-2.4-1.5-4.4-3.5-5.8-6
			c-1.4-2.5-2.1-5.3-2.1-8.6c0-5.7,2.1-10.5,6.2-14.3c4.2-3.8,10.2-5.7,18.1-5.7c8,0,14.2,1.9,18.6,5.6c4.4,3.8,6.8,8.8,7.2,15
			l-13.5,0.6c-0.3-3.3-1.5-5.8-3.5-7.5c-2-1.7-5-2.6-8.9-2.6c-3.9,0-6.7,0.7-8.3,2c-1.7,1.4-2.5,3.1-2.5,5.2c0,2,0.8,3.6,2.3,4.8
			c1.5,1.3,4.9,3.1,10.1,5.4c7.9,3.4,12.9,6.1,15,8.2c3.2,3.1,4.8,7.1,4.8,12c0,6-2.4,11.2-7.1,15.4c-4.8,4.3-11.4,6.4-19.9,6.4
			c-5.9,0-11-1-15.3-3c-4.3-2-7.3-4.7-9.1-8.2C577.3,84.3,576.5,80.3,576.6,75.7z"/>
		<path class="st2" d="M685.2,67.3h-26.4l-6.4,30.5h-14.1l14.3-68.3h14l-5.5,26.4h26.4l5.5-26.4h14l-14.3,68.3h-14.1L685.2,67.3z"/>
	</g>
	<g>
		<path class="st3" d="M364.8,118.4c0,0.7-0.1,1.5-0.3,2.2c-0.2,0.8-0.4,1.5-0.8,2.3c-0.4,0.7-0.8,1.5-1.4,2.1
			c-0.6,0.7-1.2,1.3-2,1.8c-0.8,0.5-1.7,0.9-2.7,1.2c-1,0.3-2.3,0.4-3.7,0.4h-3.6l-1.9,9.5c0,0.1-0.1,0.2-0.1,0.3
			c-0.1,0.1-0.2,0.1-0.3,0.2c-0.2,0-0.3,0.1-0.6,0.1c-0.2,0-0.5,0.1-0.8,0.1c-0.3,0-0.6,0-0.8,0c-0.2,0-0.4-0.1-0.5-0.1
			c-0.1,0-0.2-0.1-0.3-0.2c0-0.1-0.1-0.2,0-0.3l4.8-24.2c0.1-0.5,0.3-0.9,0.7-1.2c0.3-0.2,0.7-0.3,1.2-0.3h5.2c0.7,0,1.3,0,1.8,0.1
			c0.5,0,1,0.1,1.5,0.2c0.7,0.2,1.4,0.4,2,0.7c0.6,0.3,1.1,0.8,1.5,1.2c0.4,0.5,0.7,1.1,0.9,1.7
			C364.7,116.9,364.8,117.6,364.8,118.4z M361.1,118.8c0-0.8-0.2-1.6-0.6-2.2c-0.4-0.6-1-1-1.9-1.3c-0.3-0.1-0.7-0.2-1.1-0.2
			c-0.4,0-0.8,0-1.3,0H353l-2.1,10.5h3.3c1,0,1.8-0.1,2.4-0.3c0.7-0.2,1.2-0.5,1.7-0.9c0.5-0.4,0.9-0.8,1.3-1.2
			c0.3-0.5,0.6-1,0.8-1.5c0.2-0.5,0.4-1,0.5-1.5C361.1,119.7,361.1,119.2,361.1,118.8z"/>
		<path class="st3" d="M384.5,125.8c0,1-0.1,2-0.3,3.1c-0.2,1-0.5,2-0.9,3c-0.4,1-0.9,1.9-1.5,2.7c-0.6,0.9-1.3,1.6-2.1,2.2
			c-0.8,0.6-1.7,1.1-2.7,1.5c-1,0.4-2.2,0.6-3.4,0.6c-1.3,0-2.4-0.2-3.3-0.5c-0.9-0.3-1.7-0.8-2.3-1.4c-0.6-0.6-1-1.3-1.3-2.2
			c-0.3-0.9-0.4-1.8-0.4-2.9c0-1,0.1-2,0.3-3.1c0.2-1,0.5-2,0.9-3c0.4-1,0.9-1.9,1.5-2.7s1.3-1.6,2.1-2.2c0.8-0.6,1.7-1.1,2.7-1.5
			c1-0.4,2.2-0.6,3.4-0.6c1.3,0,2.4,0.2,3.3,0.5c0.9,0.3,1.7,0.8,2.3,1.4c0.6,0.6,1,1.3,1.3,2.2
			C384.3,123.7,384.5,124.7,384.5,125.8z M381,126c0-0.7-0.1-1.3-0.2-1.8c-0.1-0.5-0.4-1-0.7-1.4c-0.3-0.4-0.8-0.7-1.3-0.9
			c-0.5-0.2-1.2-0.3-1.9-0.3c-0.8,0-1.5,0.1-2.2,0.4c-0.7,0.3-1.3,0.7-1.8,1.2c-0.5,0.5-1,1.1-1.4,1.7c-0.4,0.7-0.7,1.4-1,2.1
			c-0.3,0.7-0.4,1.5-0.6,2.3c-0.1,0.8-0.2,1.6-0.2,2.3c0,0.7,0.1,1.3,0.2,1.8c0.1,0.5,0.4,1,0.7,1.4c0.3,0.4,0.8,0.7,1.3,0.9
			c0.5,0.2,1.2,0.3,1.9,0.3c0.8,0,1.6-0.1,2.2-0.4c0.7-0.3,1.2-0.7,1.8-1.2c0.5-0.5,1-1.1,1.4-1.7c0.4-0.7,0.7-1.4,1-2.1
			c0.2-0.8,0.4-1.5,0.6-2.3C380.9,127.5,381,126.7,381,126z"/>
		<path class="st3" d="M415.8,119.6c0,0.1,0,0.3-0.1,0.5c0,0.2-0.1,0.3-0.1,0.4c-0.5,1.5-1.1,3-1.7,4.5s-1.3,3-2,4.5
			c-0.7,1.5-1.5,3-2.4,4.4s-1.8,2.8-2.7,4.2c-0.1,0.1-0.2,0.3-0.4,0.3c-0.1,0.1-0.3,0.1-0.5,0.2s-0.4,0.1-0.6,0.1
			c-0.2,0-0.5,0-0.8,0c-0.4,0-0.6,0-0.9,0c-0.2,0-0.4-0.1-0.6-0.1s-0.2-0.1-0.3-0.2c-0.1-0.1-0.1-0.2-0.1-0.3l-1.4-13.4l-6.1,13.3
			c-0.1,0.1-0.2,0.3-0.3,0.4c-0.1,0.1-0.2,0.2-0.4,0.2c-0.2,0.1-0.4,0.1-0.7,0.1c-0.3,0-0.6,0-1,0c-0.4,0-0.7,0-1,0
			c-0.3,0-0.5-0.1-0.7-0.1c-0.2-0.1-0.3-0.1-0.4-0.2c-0.1-0.1-0.1-0.2-0.1-0.3l-1.9-17.3c0-0.1,0-0.2,0-0.4c0-0.1,0-0.2,0-0.3
			c0-0.2,0-0.3,0.1-0.4c0.1-0.1,0.1-0.2,0.3-0.2c0.1-0.1,0.3-0.1,0.5-0.1c0.2,0,0.5,0,0.9,0c0.4,0,0.6,0,0.8,0
			c0.2,0,0.4,0.1,0.5,0.1c0.1,0,0.2,0.1,0.2,0.2c0,0.1,0.1,0.2,0.1,0.3l1.4,15.1v0.2l0.1-0.2l6.9-15.1c0.1-0.1,0.1-0.2,0.2-0.3
			c0.1-0.1,0.2-0.2,0.3-0.2c0.1-0.1,0.3-0.1,0.5-0.1c0.2,0,0.5,0,0.8,0c0.3,0,0.6,0,0.8,0c0.2,0,0.4,0.1,0.5,0.1
			c0.1,0,0.2,0.1,0.3,0.2c0.1,0.1,0.1,0.2,0.1,0.3l1.5,15v0.2l0.1-0.2c0.6-1,1.2-2,1.9-3.2c0.6-1.2,1.2-2.4,1.8-3.7s1.1-2.6,1.7-4
			c0.5-1.4,1-2.7,1.4-4c0-0.1,0.1-0.2,0.2-0.3c0.1-0.1,0.2-0.2,0.3-0.2c0.1,0,0.3-0.1,0.6-0.1c0.2,0,0.5,0,0.9,0c0.3,0,0.6,0,0.8,0
			c0.2,0,0.4,0,0.5,0.1c0.1,0,0.2,0.1,0.2,0.1C415.8,119.4,415.8,119.5,415.8,119.6z"/>
		<path class="st3" d="M434.4,123.4c0,0.9-0.2,1.8-0.6,2.5s-1.1,1.4-2,1.9c-0.9,0.5-2.1,0.9-3.5,1.2c-1.4,0.3-3.1,0.4-5.1,0.4h-2.1
			c-0.1,0.4-0.2,0.9-0.2,1.3c0,0.4-0.1,0.8-0.1,1.2c0,1.4,0.3,2.4,1,3.1c0.7,0.7,1.8,1.1,3.3,1.1c0.9,0,1.6-0.1,2.3-0.2
			c0.7-0.1,1.3-0.3,1.8-0.4c0.5-0.1,0.9-0.3,1.2-0.4c0.3-0.1,0.5-0.2,0.7-0.2s0.2,0,0.3,0.1c0.1,0.1,0.1,0.2,0.1,0.4
			c0,0.1,0,0.3,0,0.5c0,0.2-0.1,0.4-0.1,0.6c-0.1,0.2-0.1,0.4-0.2,0.6c-0.1,0.2-0.2,0.3-0.3,0.4c-0.2,0.2-0.4,0.3-0.9,0.5
			c-0.4,0.2-0.9,0.3-1.5,0.4c-0.6,0.1-1.2,0.2-1.9,0.3c-0.7,0.1-1.3,0.1-2,0.1c-1.2,0-2.3-0.1-3.2-0.4s-1.7-0.7-2.3-1.2
			c-0.6-0.6-1-1.3-1.3-2.1c-0.3-0.8-0.4-1.8-0.4-3c0-0.9,0.1-1.8,0.3-2.8c0.2-1,0.4-2,0.8-3c0.4-1,0.8-1.9,1.4-2.8
			c0.6-0.9,1.3-1.7,2.1-2.4c0.8-0.7,1.7-1.2,2.8-1.7c1.1-0.4,2.2-0.6,3.6-0.6c1.1,0,2.1,0.1,2.9,0.4c0.8,0.3,1.4,0.6,1.9,1.1
			c0.5,0.4,0.9,0.9,1.1,1.5C434.2,122.4,434.4,122.9,434.4,123.4z M430.9,123.7c0-0.7-0.3-1.2-0.8-1.7c-0.5-0.4-1.3-0.6-2.3-0.6
			c-0.9,0-1.7,0.2-2.3,0.5c-0.7,0.3-1.3,0.7-1.8,1.2c-0.5,0.5-1,1.1-1.3,1.8c-0.4,0.7-0.7,1.4-0.9,2.2h2.1c1.4,0,2.6-0.1,3.6-0.3
			c1-0.2,1.7-0.4,2.3-0.7s1-0.7,1.2-1.1C430.8,124.6,430.9,124.2,430.9,123.7z"/>
		<path class="st3" d="M450.7,119.7c0,0.1,0,0.2,0,0.3c0,0.2,0,0.3-0.1,0.5s-0.1,0.4-0.1,0.6c-0.1,0.2-0.1,0.4-0.2,0.6
			c-0.1,0.2-0.2,0.3-0.3,0.5c-0.1,0.1-0.2,0.2-0.3,0.2c-0.1,0-0.2,0-0.4-0.1c-0.1,0-0.3-0.1-0.4-0.2c-0.2-0.1-0.3-0.1-0.5-0.2
			c-0.2,0-0.4-0.1-0.7-0.1c-0.5,0-1,0.2-1.6,0.6c-0.6,0.4-1.2,0.9-1.8,1.7c-0.6,0.7-1.1,1.5-1.6,2.5c-0.5,1-0.8,2-1.1,3.1l-1.6,8.1
			c0,0.1-0.1,0.2-0.1,0.3c-0.1,0.1-0.2,0.1-0.3,0.2c-0.1,0.1-0.3,0.1-0.5,0.1c-0.2,0-0.5,0-0.8,0c-0.3,0-0.6,0-0.8,0
			c-0.2,0-0.4-0.1-0.5-0.1c-0.1-0.1-0.2-0.1-0.2-0.2c0-0.1,0-0.2,0-0.3l3.6-18.2c0-0.1,0.1-0.2,0.1-0.3c0.1-0.1,0.2-0.1,0.3-0.2
			c0.1-0.1,0.3-0.1,0.5-0.1c0.2,0,0.4,0,0.7,0c0.3,0,0.5,0,0.7,0c0.2,0,0.3,0.1,0.4,0.1c0.1,0.1,0.2,0.1,0.2,0.2c0,0.1,0,0.2,0,0.3
			l-0.7,3.3c0.3-0.6,0.7-1.1,1.1-1.6c0.4-0.5,0.9-1,1.4-1.3s1-0.7,1.6-0.9c0.5-0.2,1.1-0.3,1.6-0.3c0.2,0,0.5,0,0.7,0.1
			c0.2,0,0.5,0.1,0.7,0.1c0.2,0,0.4,0.1,0.5,0.2c0.2,0.1,0.3,0.1,0.4,0.2C450.7,119.4,450.7,119.6,450.7,119.7z"/>
		<path class="st3" d="M468.4,123.4c0,0.9-0.2,1.8-0.6,2.5c-0.4,0.7-1.1,1.4-2,1.9c-0.9,0.5-2.1,0.9-3.5,1.2
			c-1.4,0.3-3.1,0.4-5.1,0.4h-2.1c-0.1,0.4-0.2,0.9-0.2,1.3c0,0.4-0.1,0.8-0.1,1.2c0,1.4,0.3,2.4,1,3.1c0.7,0.7,1.8,1.1,3.3,1.1
			c0.9,0,1.6-0.1,2.3-0.2c0.7-0.1,1.3-0.3,1.8-0.4c0.5-0.1,0.9-0.3,1.2-0.4c0.3-0.1,0.5-0.2,0.7-0.2c0.1,0,0.2,0,0.3,0.1
			c0.1,0.1,0.1,0.2,0.1,0.4c0,0.1,0,0.3,0,0.5c0,0.2-0.1,0.4-0.1,0.6c-0.1,0.2-0.1,0.4-0.2,0.6c-0.1,0.2-0.2,0.3-0.3,0.4
			c-0.2,0.2-0.4,0.3-0.9,0.5c-0.4,0.2-0.9,0.3-1.5,0.4c-0.6,0.1-1.2,0.2-1.9,0.3c-0.7,0.1-1.4,0.1-2,0.1c-1.2,0-2.3-0.1-3.2-0.4
			c-0.9-0.3-1.7-0.7-2.3-1.2c-0.6-0.6-1.1-1.3-1.3-2.1c-0.3-0.8-0.4-1.8-0.4-3c0-0.9,0.1-1.8,0.3-2.8c0.2-1,0.4-2,0.8-3
			c0.4-1,0.8-1.9,1.4-2.8c0.6-0.9,1.3-1.7,2.1-2.4c0.8-0.7,1.7-1.2,2.8-1.7c1.1-0.4,2.2-0.6,3.6-0.6c1.1,0,2.1,0.1,2.9,0.4
			c0.8,0.3,1.4,0.6,1.9,1.1c0.5,0.4,0.9,0.9,1.1,1.5C468.3,122.4,468.4,122.9,468.4,123.4z M465,123.7c0-0.7-0.3-1.2-0.8-1.7
			c-0.5-0.4-1.3-0.6-2.3-0.6c-0.9,0-1.7,0.2-2.3,0.5c-0.7,0.3-1.3,0.7-1.8,1.2c-0.5,0.5-1,1.1-1.3,1.8c-0.4,0.7-0.7,1.4-0.9,2.2h2.1
			c1.4,0,2.6-0.1,3.6-0.3c1-0.2,1.7-0.4,2.3-0.7c0.6-0.3,1-0.7,1.2-1.1C464.8,124.6,465,124.2,465,123.7z"/>
		<path class="st3" d="M485.9,137.9c0,0.2-0.2,0.4-0.4,0.5c-0.2,0.1-0.6,0.1-1.2,0.1c-0.3,0-0.5,0-0.7,0c-0.2,0-0.3-0.1-0.4-0.1
			c-0.1,0-0.2-0.1-0.2-0.2c0-0.1,0-0.2,0-0.3l0.6-3.4c-0.2,0.4-0.5,0.9-1,1.4c-0.5,0.5-1,1-1.6,1.4s-1.3,0.8-2.1,1.1
			s-1.6,0.4-2.3,0.4c-0.8,0-1.5-0.1-2.1-0.3c-0.6-0.2-1.1-0.5-1.5-0.8c-0.4-0.4-0.7-0.8-1-1.2c-0.2-0.5-0.4-0.9-0.6-1.4
			c-0.1-0.5-0.2-1-0.3-1.5c0-0.5-0.1-1-0.1-1.4c0-0.8,0.1-1.7,0.2-2.6c0.1-1,0.4-1.9,0.7-2.9s0.7-1.9,1.2-2.9
			c0.5-0.9,1.1-1.8,1.8-2.5c0.7-0.7,1.5-1.3,2.5-1.8c0.9-0.4,2-0.7,3.2-0.7c0.6,0,1.1,0.1,1.6,0.2c0.5,0.1,1,0.3,1.4,0.5
			c0.4,0.2,0.8,0.5,1.2,0.8c0.4,0.3,0.7,0.6,1,1L488,111c0-0.1,0.1-0.2,0.1-0.3c0.1-0.1,0.2-0.2,0.3-0.2c0.1,0,0.3-0.1,0.5-0.1
			c0.2,0,0.5-0.1,0.8-0.1c0.3,0,0.6,0,0.8,0.1c0.2,0,0.4,0.1,0.5,0.1c0.1,0,0.2,0.1,0.2,0.2c0,0.1,0,0.2,0,0.3L485.9,137.9z
			 M485.3,124.5c-0.6-0.9-1.3-1.6-2.1-2.1c-0.7-0.5-1.6-0.7-2.5-0.7c-0.7,0-1.4,0.2-1.9,0.5c-0.6,0.3-1.1,0.8-1.5,1.3
			c-0.5,0.6-0.9,1.2-1.2,1.9c-0.3,0.7-0.6,1.5-0.8,2.2c-0.2,0.8-0.4,1.5-0.5,2.3c-0.1,0.7-0.2,1.4-0.2,2c0,1.3,0.2,2.3,0.7,3
			c0.4,0.7,1.2,1,2.1,1c0.7,0,1.5-0.2,2.2-0.6c0.7-0.4,1.4-1,2.1-1.7c0.6-0.7,1.2-1.6,1.7-2.6c0.5-1,0.9-2.1,1.1-3.2L485.3,124.5z"
			/>
		<path class="st3" d="M519.9,125.4c0,0.8-0.1,1.7-0.2,2.7c-0.1,1-0.4,2-0.7,3s-0.7,2-1.2,2.9c-0.5,0.9-1.1,1.8-1.8,2.5
			c-0.7,0.7-1.6,1.3-2.5,1.7c-0.9,0.4-2,0.7-3.2,0.7c-1.2,0-2.3-0.2-3.1-0.7c-0.9-0.5-1.6-1.1-2.3-2l-0.4,1.8c0,0.2-0.2,0.4-0.4,0.5
			c-0.3,0.1-0.7,0.1-1.2,0.1c-0.6,0-0.9-0.1-1.1-0.2c-0.2-0.1-0.3-0.3-0.2-0.5l5.4-27.1c0-0.1,0.1-0.2,0.1-0.3
			c0.1-0.1,0.2-0.1,0.3-0.2c0.1-0.1,0.3-0.1,0.5-0.1c0.2,0,0.5,0,0.8,0c0.3,0,0.6,0,0.8,0c0.2,0,0.4,0.1,0.5,0.1
			c0.1,0.1,0.2,0.1,0.2,0.2c0,0.1,0,0.2,0,0.3l-1.6,8.1c-0.1,0.4-0.1,0.7-0.2,1.1c-0.1,0.4-0.2,0.8-0.3,1.1
			c-0.1,0.4-0.2,0.7-0.3,1.1c-0.1,0.3-0.2,0.6-0.3,0.9c0.2-0.5,0.6-1,1-1.5c0.5-0.5,1-1,1.6-1.4s1.3-0.8,2.1-1.1
			c0.7-0.3,1.5-0.4,2.2-0.4c0.8,0,1.5,0.1,2.1,0.3c0.6,0.2,1.1,0.5,1.5,0.9c0.4,0.4,0.7,0.8,1,1.2c0.2,0.5,0.4,0.9,0.6,1.4
			c0.1,0.5,0.2,1,0.3,1.4C519.9,124.6,519.9,125,519.9,125.4z M516.4,125.7c0-0.4,0-0.8-0.1-1.3c-0.1-0.5-0.2-0.9-0.4-1.3
			c-0.2-0.4-0.5-0.7-0.9-1c-0.4-0.3-0.9-0.4-1.5-0.4c-0.7,0-1.5,0.2-2.2,0.6c-0.8,0.4-1.5,1-2.1,1.7c-0.6,0.7-1.2,1.6-1.7,2.6
			c-0.5,1-0.9,2.1-1.1,3.3l-0.7,3.4c0.6,0.9,1.3,1.6,2,2.1s1.6,0.7,2.5,0.7c0.7,0,1.3-0.2,1.9-0.5c0.6-0.3,1.1-0.8,1.5-1.3
			c0.5-0.5,0.9-1.2,1.2-1.9c0.3-0.7,0.6-1.4,0.8-2.2c0.2-0.8,0.4-1.5,0.5-2.3S516.4,126.4,516.4,125.7z"/>
		<path class="st3" d="M540.3,119.6c0,0.1,0,0.3,0,0.5c0,0.2-0.1,0.3-0.1,0.4c-0.4,1.2-0.9,2.5-1.5,3.8s-1.1,2.7-1.8,4.2
			c-0.7,1.5-1.5,3-2.5,4.5c-0.9,1.6-2.1,3.2-3.4,5l-5.2,7.1c-0.1,0.1-0.2,0.2-0.3,0.3c-0.1,0.1-0.3,0.2-0.4,0.2
			c-0.2,0.1-0.4,0.1-0.6,0.1c-0.2,0-0.5,0-0.9,0c-0.4,0-0.7,0-0.9-0.1c-0.2,0-0.4-0.1-0.5-0.2c-0.1-0.1-0.2-0.2-0.2-0.3
			c0-0.1,0.1-0.3,0.2-0.5l4.9-6.3l-3-17.8c0-0.2,0-0.3-0.1-0.4s0-0.2,0-0.3c0-0.1,0-0.3,0.1-0.4c0-0.1,0.1-0.2,0.3-0.2
			c0.1-0.1,0.3-0.1,0.5-0.1c0.2,0,0.5,0,0.8,0c0.4,0,0.7,0,0.9,0c0.2,0,0.4,0.1,0.5,0.1c0.1,0,0.2,0.1,0.2,0.2
			c0,0.1,0.1,0.2,0.1,0.3l2.4,14.9h0c0.8-1.2,1.6-2.4,2.3-3.6c0.7-1.2,1.3-2.4,1.9-3.7s1.1-2.5,1.6-3.8c0.5-1.3,0.9-2.6,1.3-3.9
			c0-0.1,0.1-0.2,0.2-0.3c0.1-0.1,0.2-0.1,0.3-0.2c0.1-0.1,0.3-0.1,0.6-0.1c0.2,0,0.5,0,0.9,0c0.6,0,1,0,1.2,0.1
			C540.2,119.3,540.3,119.4,540.3,119.6z"/>
		<path class="st3" d="M554.6,137.9c0,0.1-0.1,0.2-0.1,0.3c-0.1,0.1-0.2,0.1-0.3,0.2c-0.1,0-0.3,0.1-0.6,0.1c-0.2,0-0.5,0.1-0.8,0.1
			c-0.4,0-0.6,0-0.9-0.1c-0.2,0-0.4-0.1-0.5-0.1c-0.1,0-0.2-0.1-0.2-0.2c0-0.1,0-0.2,0-0.3l5-25.2c0-0.1,0.1-0.2,0.2-0.3
			c0.1-0.1,0.2-0.1,0.4-0.2c0.1,0,0.3-0.1,0.6-0.1c0.2,0,0.5-0.1,0.8-0.1c0.3,0,0.6,0,0.8,0.1c0.2,0,0.4,0.1,0.5,0.1
			c0.1,0,0.2,0.1,0.3,0.2c0,0.1,0,0.2,0,0.3L554.6,137.9z"/>
		<path class="st3" d="M581.5,137c0,0.3-0.1,0.5-0.2,0.7c-0.1,0.2-0.3,0.3-0.4,0.5c-0.2,0.1-0.3,0.2-0.5,0.3
			c-0.2,0.1-0.4,0.1-0.5,0.1h-1.3c-0.4,0-0.6,0-0.9-0.1c-0.2-0.1-0.5-0.2-0.6-0.4c-0.2-0.2-0.3-0.5-0.5-0.8
			c-0.1-0.3-0.3-0.7-0.5-1.2l-4.9-14c-0.3-1-0.7-2-1-3c-0.3-1-0.7-2-1-3h0c-0.2,1.1-0.4,2.2-0.6,3.3s-0.4,2.2-0.6,3.3l-3,15.3
			c0,0.1-0.1,0.2-0.2,0.3c-0.1,0.1-0.2,0.1-0.3,0.2c-0.1,0-0.3,0.1-0.5,0.1c-0.2,0-0.5,0.1-0.8,0.1c-0.3,0-0.6,0-0.8-0.1
			c-0.2,0-0.4-0.1-0.5-0.1c-0.1,0-0.2-0.1-0.2-0.2c0-0.1,0-0.2,0-0.3l4.8-24.2c0.1-0.5,0.3-0.9,0.7-1.2c0.3-0.2,0.7-0.3,1-0.3h1.6
			c0.3,0,0.6,0,0.9,0.1c0.2,0.1,0.5,0.2,0.6,0.4c0.2,0.2,0.3,0.4,0.5,0.7c0.1,0.3,0.3,0.6,0.4,1.1l5,14.2c0.3,0.9,0.6,1.8,0.9,2.6
			c0.3,0.9,0.6,1.8,0.9,2.7h0c0.2-1.1,0.4-2.3,0.6-3.4c0.2-1.2,0.4-2.3,0.7-3.4l2.9-14.2c0-0.1,0.1-0.2,0.1-0.3
			c0.1-0.1,0.2-0.1,0.3-0.2c0.1-0.1,0.3-0.1,0.5-0.1c0.2,0,0.5,0,0.8,0c0.3,0,0.6,0,0.8,0c0.2,0,0.4,0.1,0.5,0.1
			c0.1,0.1,0.2,0.1,0.2,0.2c0,0.1,0.1,0.2,0,0.3L581.5,137z"/>
		<path class="st3" d="M608.2,137c0,0.3-0.1,0.5-0.2,0.7c-0.1,0.2-0.3,0.3-0.4,0.5c-0.2,0.1-0.3,0.2-0.5,0.3
			c-0.2,0.1-0.4,0.1-0.5,0.1h-1.3c-0.4,0-0.6,0-0.9-0.1c-0.2-0.1-0.5-0.2-0.6-0.4c-0.2-0.2-0.3-0.5-0.5-0.8
			c-0.1-0.3-0.3-0.7-0.5-1.2l-4.9-14c-0.3-1-0.7-2-1-3c-0.3-1-0.7-2-1-3h0c-0.2,1.1-0.4,2.2-0.6,3.3s-0.4,2.2-0.6,3.3l-3,15.3
			c0,0.1-0.1,0.2-0.2,0.3c-0.1,0.1-0.2,0.1-0.3,0.2c-0.1,0-0.3,0.1-0.5,0.1c-0.2,0-0.5,0.1-0.8,0.1c-0.3,0-0.6,0-0.8-0.1
			c-0.2,0-0.4-0.1-0.5-0.1c-0.1,0-0.2-0.1-0.2-0.2c0-0.1,0-0.2,0-0.3l4.8-24.2c0.1-0.5,0.3-0.9,0.7-1.2c0.3-0.2,0.7-0.3,1-0.3h1.6
			c0.3,0,0.6,0,0.9,0.1c0.2,0.1,0.5,0.2,0.6,0.4c0.2,0.2,0.3,0.4,0.5,0.7c0.1,0.3,0.3,0.6,0.4,1.1l5,14.2c0.3,0.9,0.6,1.8,0.9,2.6
			c0.3,0.9,0.6,1.8,0.9,2.7h0c0.2-1.1,0.4-2.3,0.6-3.4c0.2-1.2,0.4-2.3,0.7-3.4l2.9-14.2c0-0.1,0.1-0.2,0.1-0.3
			c0.1-0.1,0.2-0.1,0.3-0.2c0.1-0.1,0.3-0.1,0.5-0.1c0.2,0,0.5,0,0.8,0c0.3,0,0.6,0,0.8,0c0.2,0,0.4,0.1,0.5,0.1
			c0.1,0.1,0.2,0.1,0.2,0.2c0,0.1,0.1,0.2,0,0.3L608.2,137z"/>
		<path class="st3" d="M639.6,121c0,1-0.1,2.2-0.3,3.5c-0.2,1.3-0.5,2.6-1,3.9s-1,2.6-1.8,3.9c-0.7,1.2-1.6,2.4-2.7,3.3
			c-1.1,1-2.4,1.7-3.8,2.3c-1.5,0.6-3.2,0.9-5.1,0.9c-1.5,0-2.9-0.2-4-0.6s-2.1-1-2.9-1.7c-0.8-0.8-1.4-1.7-1.8-2.8
			c-0.4-1.1-0.6-2.4-0.6-3.9c0-1.2,0.1-2.4,0.3-3.7s0.5-2.7,1-4c0.5-1.3,1.1-2.6,1.8-3.8c0.7-1.2,1.7-2.3,2.8-3.3
			c1.1-1,2.4-1.7,3.8-2.3c1.5-0.6,3.1-0.8,5-0.8c1.5,0,2.9,0.2,4,0.6s2.1,1,2.9,1.8c0.8,0.8,1.4,1.7,1.8,2.9
			C639.4,118.2,639.6,119.5,639.6,121z M635.9,121.3c0-0.9-0.1-1.8-0.3-2.6s-0.6-1.5-1-2c-0.5-0.6-1.1-1-1.9-1.3
			c-0.8-0.3-1.7-0.5-2.8-0.5c-1.4,0-2.6,0.3-3.7,0.8c-1.1,0.5-2,1.2-2.8,2c-0.8,0.8-1.4,1.8-1.9,2.8c-0.5,1.1-0.9,2.1-1.2,3.2
			c-0.3,1.1-0.5,2.1-0.6,3.1c-0.1,1-0.2,1.9-0.2,2.6c0,1,0.1,1.8,0.3,2.6c0.2,0.8,0.6,1.4,1,2c0.5,0.6,1.1,1,1.9,1.3
			c0.8,0.3,1.7,0.5,2.8,0.5c1.4,0,2.6-0.3,3.7-0.8c1.1-0.5,2-1.2,2.7-2c0.8-0.8,1.4-1.8,1.9-2.8c0.5-1,0.9-2.1,1.2-3.2
			c0.3-1.1,0.5-2.1,0.7-3.1C635.8,122.9,635.9,122,635.9,121.3z"/>
		<path class="st3" d="M652.8,137.8c-0.1,0.1-0.2,0.3-0.3,0.4c-0.1,0.1-0.2,0.2-0.4,0.2s-0.4,0.1-0.7,0.1c-0.3,0-0.6,0-1,0
			c-0.4,0-0.8,0-1.1,0s-0.5-0.1-0.7-0.1s-0.3-0.1-0.4-0.2c-0.1-0.1-0.1-0.2-0.1-0.4l-3.7-24.5c0-0.3-0.1-0.5-0.1-0.6
			c0-0.2,0.1-0.3,0.2-0.4c0.1-0.1,0.3-0.1,0.5-0.2c0.2,0,0.6,0,1,0c0.4,0,0.7,0,1,0c0.2,0,0.4,0.1,0.6,0.1c0.1,0.1,0.2,0.1,0.3,0.2
			c0,0.1,0.1,0.2,0.1,0.3l3.1,22h0l11.7-22.1c0.1-0.1,0.1-0.2,0.2-0.3c0.1-0.1,0.2-0.2,0.4-0.2c0.1-0.1,0.3-0.1,0.6-0.1
			c0.2,0,0.6,0,1,0c0.4,0,0.7,0,1,0.1s0.4,0.1,0.5,0.2c0.1,0.1,0.1,0.2,0.1,0.4c0,0.2-0.1,0.4-0.3,0.7L652.8,137.8z"/>
		<path class="st3" d="M685.4,137.2c0,0.3,0.1,0.5,0,0.7c0,0.2-0.1,0.3-0.2,0.4c-0.1,0.1-0.3,0.2-0.6,0.2c-0.3,0-0.6,0-1.1,0
			c-0.3,0-0.6,0-0.8,0c-0.2,0-0.4-0.1-0.5-0.1c-0.1,0-0.2-0.1-0.3-0.2c-0.1-0.1-0.1-0.2-0.1-0.3l-1-6.4h-10.9l-3.4,6.3
			c-0.1,0.1-0.1,0.2-0.2,0.3c-0.1,0.1-0.2,0.2-0.4,0.2c-0.2,0.1-0.4,0.1-0.6,0.1c-0.3,0-0.6,0-0.9,0c-0.4,0-0.7,0-1-0.1
			c-0.2,0-0.4-0.1-0.5-0.2c-0.1-0.1-0.1-0.2-0.1-0.4c0-0.2,0.1-0.4,0.3-0.7l13.6-24.3c0.1-0.1,0.2-0.3,0.3-0.4
			c0.1-0.1,0.2-0.2,0.4-0.2c0.2-0.1,0.4-0.1,0.7-0.1c0.3,0,0.6,0,1,0c0.4,0,0.8,0,1.1,0c0.3,0,0.5,0.1,0.7,0.1
			c0.2,0.1,0.3,0.1,0.4,0.2c0.1,0.1,0.1,0.2,0.1,0.4L685.4,137.2z M678.6,115.7L678.6,115.7l-7.1,13.1h9.1L678.6,115.7z"/>
		<path class="st3" d="M706.6,114.2c0,0.1,0,0.2,0,0.4c0,0.1,0,0.3-0.1,0.4c0,0.2-0.1,0.3-0.1,0.5c0,0.2-0.1,0.3-0.2,0.4
			c-0.1,0.1-0.1,0.2-0.2,0.3c-0.1,0.1-0.2,0.1-0.3,0.1c-0.1,0-0.4-0.1-0.6-0.3c-0.3-0.2-0.6-0.4-1-0.6c-0.4-0.2-0.9-0.4-1.5-0.6
			c-0.6-0.2-1.2-0.3-2-0.3c-0.8,0-1.5,0.1-2.2,0.4c-0.6,0.2-1.1,0.6-1.6,1c-0.4,0.4-0.7,0.9-0.9,1.4c-0.2,0.5-0.3,1.1-0.3,1.7
			c0,0.6,0.1,1.1,0.4,1.6c0.3,0.4,0.6,0.9,1,1.2c0.4,0.4,0.9,0.7,1.5,1c0.5,0.3,1.1,0.7,1.7,1s1.1,0.7,1.7,1.1
			c0.6,0.4,1,0.8,1.5,1.3s0.8,1.1,1,1.7c0.3,0.7,0.4,1.4,0.4,2.3c0,1.1-0.2,2.2-0.7,3.2c-0.5,1-1.1,1.9-2,2.6
			c-0.9,0.7-1.9,1.3-3.1,1.8c-1.2,0.4-2.6,0.7-4.1,0.7c-0.8,0-1.6-0.1-2.3-0.2c-0.7-0.1-1.3-0.3-1.9-0.5c-0.6-0.2-1-0.4-1.4-0.6
			c-0.4-0.2-0.7-0.4-0.9-0.6c-0.2-0.2-0.3-0.4-0.3-0.8c0-0.1,0-0.2,0-0.3c0-0.1,0.1-0.3,0.1-0.5c0-0.2,0.1-0.3,0.1-0.5
			c0-0.2,0.1-0.3,0.2-0.5c0.1-0.1,0.2-0.3,0.2-0.3c0.1-0.1,0.2-0.1,0.3-0.1c0.2,0,0.5,0.1,0.8,0.3c0.3,0.2,0.7,0.4,1.2,0.7
			c0.5,0.2,1,0.5,1.7,0.7c0.7,0.2,1.4,0.3,2.3,0.3c0.9,0,1.8-0.1,2.5-0.4c0.7-0.3,1.4-0.6,1.9-1.1c0.5-0.5,0.9-1,1.2-1.6
			c0.3-0.6,0.4-1.3,0.4-1.9c0-0.6-0.1-1.1-0.4-1.6c-0.3-0.5-0.6-0.9-1-1.2c-0.4-0.4-0.9-0.7-1.4-1c-0.5-0.3-1.1-0.6-1.7-1
			c-0.6-0.3-1.1-0.7-1.7-1.1c-0.5-0.4-1-0.8-1.4-1.3c-0.4-0.5-0.8-1.1-1-1.7s-0.4-1.4-0.4-2.3c0-1.1,0.2-2.1,0.6-3
			c0.4-0.9,1-1.7,1.8-2.5c0.8-0.7,1.7-1.3,2.8-1.7s2.3-0.6,3.7-0.6c0.6,0,1.3,0.1,1.9,0.2c0.6,0.1,1.1,0.2,1.6,0.4
			c0.5,0.2,0.9,0.3,1.2,0.5c0.3,0.2,0.6,0.3,0.7,0.5c0.1,0.1,0.2,0.2,0.3,0.4C706.6,113.9,706.6,114,706.6,114.2z"/>
	</g>
</g>
</svg>
