<?xml version="1.0" encoding="UTF-8" standalone="no"?>
<!-- Generator: Adobe Illustrator 24.2.0, SVG Export Plug-In . SVG Version: 6.00 Build 0)  -->

<svg
   xmlns:dc="http://purl.org/dc/elements/1.1/"
   xmlns:cc="http://creativecommons.org/ns#"
   xmlns:rdf="http://www.w3.org/1999/02/22-rdf-syntax-ns#"
   xmlns:svg="http://www.w3.org/2000/svg"
   xmlns="http://www.w3.org/2000/svg"
   xmlns:sodipodi="http://sodipodi.sourceforge.net/DTD/sodipodi-0.dtd"
   xmlns:inkscape="http://www.inkscape.org/namespaces/inkscape"
   version="1.1"
   id="Warstwa_1"
   x="0px"
   y="0px"
   viewBox="0 0 171.94837 151.00665"
   xml:space="preserve"
   sodipodi:docname="logoCropped.svg"
   inkscape:version="0.92.5 (2060ec1f9f, 2020-04-08)"
   width="171.94836"
   height="151.00665"><metadata
   id="metadata4365"><rdf:RDF><cc:Work
       rdf:about=""><dc:format>image/svg+xml</dc:format><dc:type
         rdf:resource="http://purl.org/dc/dcmitype/StillImage" /><dc:title></dc:title></cc:Work></rdf:RDF></metadata><defs
   id="defs4363"><clipPath
     clipPathUnits="userSpaceOnUse"
     id="clipPath4371"><rect
       id="rect4373"
       width="171.34505"
       height="199.70145"
       x="0.60332757"
       y="0.29855639" /></clipPath><clipPath
     clipPathUnits="userSpaceOnUse"
     id="clipPath4398"><rect
       id="rect4400"
       width="149.70146"
       height="150.82365"
       x="0.60332757"
       y="24.674841"
       style="stroke-width:0.99424773" /></clipPath></defs><sodipodi:namedview
   pagecolor="#ffffff"
   bordercolor="#666666"
   borderopacity="1"
   objecttolerance="10"
   gridtolerance="10"
   guidetolerance="10"
   inkscape:pageopacity="0"
   inkscape:pageshadow="2"
   inkscape:window-width="1366"
   inkscape:window-height="714"
   id="namedview4361"
   showgrid="false"
   inkscape:zoom="1.6574742"
   inkscape:cx="65.762705"
   inkscape:cy="74.900001"
   inkscape:window-x="0"
   inkscape:window-y="29"
   inkscape:window-maximized="1"
   inkscape:current-layer="Warstwa_1"
   showguides="true"
   inkscape:guide-bbox="true"><sodipodi:guide
     position="-234.09113,239.76082"
     orientation="-0.70710678,0.70710678"
     id="guide4394"
     inkscape:locked="false" /></sodipodi:namedview>
<style
   type="text/css"
   id="style4287">
	.st0{fill-rule:evenodd;clip-rule:evenodd;fill:#458BCA;}
	.st1{fill:#FFFFFF;}
	.st2{fill:#224463;}
	.st3{fill:#458BCA;}
</style>
<g
   id="g4358"
   clip-path="url(#clipPath4398)"
   transform="matrix(1.0035211,0,0,1.0080551,9.394548,-25.302181)">
	<g
   id="g4304">
		<g
   id="Forme_1_5_">
			<g
   id="g4291">
				<circle
   class="st0"
   cx="74.900002"
   cy="100"
   r="74.900002"
   id="circle4289"
   style="clip-rule:evenodd;fill:#458bca;fill-rule:evenodd" />
			</g>
		</g>
		
			<circle
   transform="matrix(0.1602,-0.9871,0.9871,0.1602,-8.7573,107.5927)"
   class="st1"
   cx="58.900002"
   cy="58.900002"
   id="ellipse4294"
   r="13.3"
   style="fill:#ffffff" />
		
			<rect
   x="57.299999"
   y="122.4"
   transform="matrix(0.9387,-0.3446,0.3446,0.9387,-38.1864,31.7703)"
   class="st1"
   width="25.9"
   height="1.9"
   id="rect4296"
   style="fill:#ffffff" />
		
			<circle
   transform="matrix(0.1602,-0.9871,0.9871,0.1602,-91.2433,155.3316)"
   class="st1"
   cx="45.700001"
   cy="131.3"
   id="ellipse4298"
   r="13.3"
   style="fill:#ffffff" />
		<polygon
   class="st1"
   points="87.2,98 63.9,66.3 64.8,64.7 88.1,96.4 "
   id="polygon4300"
   style="fill:#ffffff" />
		<path
   class="st1"
   d="m 101.9,90.1 c -11.9,0 -21.6,9.7 -21.6,21.6 0,11.9 9.7,21.6 21.6,21.6 11.9,0 21.6,-9.7 21.6,-21.6 0,-11.9 -9.7,-21.6 -21.6,-21.6 z m 0,40.9 c -10.7,0 -19.4,-8.7 -19.4,-19.4 0,-10.7 8.7,-19.4 19.4,-19.4 10.7,0 19.4,8.7 19.4,19.4 0,10.8 -8.7,19.4 -19.4,19.4 z"
   id="path4302"
   inkscape:connector-curvature="0"
   style="fill:#ffffff" />
	</g>
	<g
   id="g4322">
		<path
   class="st2"
   d="M 170,97.8 202.6,63.3 183.3,29.5 h 10.1 l 8.8,15.5 c 2.3,4.1 3.7,6.4 4,7.1 0.8,1.5 1.7,3.3 2.7,5.4 2.3,-3.1 5.9,-7.2 10.7,-12.2 l 15,-15.8 h 11.9 l -33,35.3 18.7,33 h -9.9 l -11.1,-20 c -1.1,-2 -2.3,-4.5 -3.8,-7.5 -1.7,2.3 -3.7,4.7 -6.1,7.2 l -19,20.3 z"
   id="path4306"
   inkscape:connector-curvature="0"
   style="fill:#224463" />
		<path
   class="st2"
   d="M 258.3,97.8 271,37.3 h -22.4 l 1.6,-7.8 h 53.7 l -1.6,7.8 h -22.2 l -12.6,60.5 z"
   id="path4308"
   inkscape:connector-curvature="0"
   style="fill:#224463" />
		<path
   class="st2"
   d="m 299.4,97.8 14.3,-68.3 h 28.6 c 5.7,0 9.9,0.5 12.9,1.4 2.9,0.9 5.2,2.7 6.9,5.3 1.7,2.6 2.5,5.9 2.5,9.9 0,5.6 -1.8,10.2 -5.4,13.8 -3.6,3.7 -9.5,6 -17.6,7.1 2.5,1.8 4.4,3.6 5.6,5.4 2.9,4 5.2,8.2 6.9,12.4 l 5.2,12.9 H 349.1 L 344.2,85 c -1.8,-4.6 -3.8,-8.6 -6.1,-11.9 -1.6,-2.3 -3.1,-3.9 -4.8,-4.6 -1.6,-0.7 -4.2,-1.1 -7.9,-1.1 h -10.6 l -6.3,30.3 h -9.1 z m 17,-37.7 H 329 c 5.8,0 9.6,-0.1 11.4,-0.2 3.4,-0.3 6.3,-1.1 8.5,-2.3 2.2,-1.2 3.9,-2.8 5.1,-4.9 1.2,-2 1.8,-4.3 1.8,-6.6 0,-2 -0.5,-3.7 -1.4,-5.2 -0.9,-1.5 -2.1,-2.5 -3.5,-3 -1.5,-0.5 -3.9,-0.8 -7.5,-0.8 h -22.3 z"
   id="path4310"
   inkscape:connector-curvature="0"
   style="fill:#224463" />
		<path
   class="st2"
   d="m 368.1,97.8 14.3,-68.3 h 49.3 l -1.6,7.8 H 390 l -4.5,21.2 h 39.1 L 423,66.3 H 383.9 L 379,90.1 h 43 l -1.6,7.7 z"
   id="path4312"
   inkscape:connector-curvature="0"
   style="fill:#224463" />
		<path
   class="st2"
   d="M 470.6,97.8 H 457.3 L 454.8,40.7 444,97.8 h -12.7 l 14.3,-68.3 h 20 l 2.1,47.8 23.3,-47.7 h 20.3 L 497,97.8 h -12.8 l 13.5,-56.6 z"
   id="path4314"
   inkscape:connector-curvature="0"
   style="fill:#224463" />
		<path
   class="st2"
   d="m 510.8,97.8 14.3,-68.3 h 50.6 L 573.3,41 h -36.6 l -3.3,15.5 h 35.4 l -2.4,11.4 H 531 l -4.3,18.5 h 39.7 L 564,97.8 Z"
   id="path4316"
   inkscape:connector-curvature="0"
   style="fill:#224463" />
		<path
   class="st2"
   d="M 576.6,75.7 590,75 c 0.2,4.3 0.9,7.1 2.2,8.6 2,2.4 5.8,3.6 11.4,3.6 4.6,0 7.9,-0.8 10,-2.5 2,-1.6 3.1,-3.6 3.1,-6 0,-2 -0.8,-3.7 -2.5,-5.1 -1.2,-1 -4.4,-2.7 -9.7,-5 -5.3,-2.3 -9.2,-4.2 -11.6,-5.8 -2.4,-1.5 -4.4,-3.5 -5.8,-6 -1.4,-2.5 -2.1,-5.3 -2.1,-8.6 0,-5.7 2.1,-10.5 6.2,-14.3 4.2,-3.8 10.2,-5.7 18.1,-5.7 8,0 14.2,1.9 18.6,5.6 4.4,3.8 6.8,8.8 7.2,15 l -13.5,0.6 c -0.3,-3.3 -1.5,-5.8 -3.5,-7.5 -2,-1.7 -5,-2.6 -8.9,-2.6 -3.9,0 -6.7,0.7 -8.3,2 -1.7,1.4 -2.5,3.1 -2.5,5.2 0,2 0.8,3.6 2.3,4.8 1.5,1.3 4.9,3.1 10.1,5.4 7.9,3.4 12.9,6.1 15,8.2 3.2,3.1 4.8,7.1 4.8,12 0,6 -2.4,11.2 -7.1,15.4 -4.8,4.3 -11.4,6.4 -19.9,6.4 -5.9,0 -11,-1 -15.3,-3 -4.3,-2 -7.3,-4.7 -9.1,-8.2 -1.9,-3.2 -2.7,-7.2 -2.6,-11.8 z"
   id="path4318"
   inkscape:connector-curvature="0"
   style="fill:#224463" />
		<path
   class="st2"
   d="m 685.2,67.3 h -26.4 l -6.4,30.5 h -14.1 l 14.3,-68.3 h 14 l -5.5,26.4 h 26.4 L 693,29.5 h 14 l -14.3,68.3 h -14.1 z"
   id="path4320"
   inkscape:connector-curvature="0"
   style="fill:#224463" />
	</g>
	<g
   id="g4356">
		<path
   class="st3"
   d="m 364.8,118.4 c 0,0.7 -0.1,1.5 -0.3,2.2 -0.2,0.8 -0.4,1.5 -0.8,2.3 -0.4,0.7 -0.8,1.5 -1.4,2.1 -0.6,0.7 -1.2,1.3 -2,1.8 -0.8,0.5 -1.7,0.9 -2.7,1.2 -1,0.3 -2.3,0.4 -3.7,0.4 h -3.6 l -1.9,9.5 c 0,0.1 -0.1,0.2 -0.1,0.3 -0.1,0.1 -0.2,0.1 -0.3,0.2 -0.2,0 -0.3,0.1 -0.6,0.1 -0.2,0 -0.5,0.1 -0.8,0.1 -0.3,0 -0.6,0 -0.8,0 -0.2,0 -0.4,-0.1 -0.5,-0.1 -0.1,0 -0.2,-0.1 -0.3,-0.2 0,-0.1 -0.1,-0.2 0,-0.3 l 4.8,-24.2 c 0.1,-0.5 0.3,-0.9 0.7,-1.2 0.3,-0.2 0.7,-0.3 1.2,-0.3 h 5.2 c 0.7,0 1.3,0 1.8,0.1 0.5,0 1,0.1 1.5,0.2 0.7,0.2 1.4,0.4 2,0.7 0.6,0.3 1.1,0.8 1.5,1.2 0.4,0.5 0.7,1.1 0.9,1.7 0.1,0.7 0.2,1.4 0.2,2.2 z m -3.7,0.4 c 0,-0.8 -0.2,-1.6 -0.6,-2.2 -0.4,-0.6 -1,-1 -1.9,-1.3 -0.3,-0.1 -0.7,-0.2 -1.1,-0.2 -0.4,0 -0.8,0 -1.3,0 H 353 l -2.1,10.5 h 3.3 c 1,0 1.8,-0.1 2.4,-0.3 0.7,-0.2 1.2,-0.5 1.7,-0.9 0.5,-0.4 0.9,-0.8 1.3,-1.2 0.3,-0.5 0.6,-1 0.8,-1.5 0.2,-0.5 0.4,-1 0.5,-1.5 0.2,-0.5 0.2,-1 0.2,-1.4 z"
   id="path4324"
   inkscape:connector-curvature="0"
   style="fill:#458bca" />
		<path
   class="st3"
   d="m 384.5,125.8 c 0,1 -0.1,2 -0.3,3.1 -0.2,1 -0.5,2 -0.9,3 -0.4,1 -0.9,1.9 -1.5,2.7 -0.6,0.9 -1.3,1.6 -2.1,2.2 -0.8,0.6 -1.7,1.1 -2.7,1.5 -1,0.4 -2.2,0.6 -3.4,0.6 -1.3,0 -2.4,-0.2 -3.3,-0.5 -0.9,-0.3 -1.7,-0.8 -2.3,-1.4 -0.6,-0.6 -1,-1.3 -1.3,-2.2 -0.3,-0.9 -0.4,-1.8 -0.4,-2.9 0,-1 0.1,-2 0.3,-3.1 0.2,-1 0.5,-2 0.9,-3 0.4,-1 0.9,-1.9 1.5,-2.7 0.6,-0.8 1.3,-1.6 2.1,-2.2 0.8,-0.6 1.7,-1.1 2.7,-1.5 1,-0.4 2.2,-0.6 3.4,-0.6 1.3,0 2.4,0.2 3.3,0.5 0.9,0.3 1.7,0.8 2.3,1.4 0.6,0.6 1,1.3 1.3,2.2 0.2,0.8 0.4,1.8 0.4,2.9 z M 381,126 c 0,-0.7 -0.1,-1.3 -0.2,-1.8 -0.1,-0.5 -0.4,-1 -0.7,-1.4 -0.3,-0.4 -0.8,-0.7 -1.3,-0.9 -0.5,-0.2 -1.2,-0.3 -1.9,-0.3 -0.8,0 -1.5,0.1 -2.2,0.4 -0.7,0.3 -1.3,0.7 -1.8,1.2 -0.5,0.5 -1,1.1 -1.4,1.7 -0.4,0.7 -0.7,1.4 -1,2.1 -0.3,0.7 -0.4,1.5 -0.6,2.3 -0.1,0.8 -0.2,1.6 -0.2,2.3 0,0.7 0.1,1.3 0.2,1.8 0.1,0.5 0.4,1 0.7,1.4 0.3,0.4 0.8,0.7 1.3,0.9 0.5,0.2 1.2,0.3 1.9,0.3 0.8,0 1.6,-0.1 2.2,-0.4 0.7,-0.3 1.2,-0.7 1.8,-1.2 0.5,-0.5 1,-1.1 1.4,-1.7 0.4,-0.7 0.7,-1.4 1,-2.1 0.2,-0.8 0.4,-1.5 0.6,-2.3 0.1,-0.8 0.2,-1.6 0.2,-2.3 z"
   id="path4326"
   inkscape:connector-curvature="0"
   style="fill:#458bca" />
		<path
   class="st3"
   d="m 415.8,119.6 c 0,0.1 0,0.3 -0.1,0.5 0,0.2 -0.1,0.3 -0.1,0.4 -0.5,1.5 -1.1,3 -1.7,4.5 -0.6,1.5 -1.3,3 -2,4.5 -0.7,1.5 -1.5,3 -2.4,4.4 -0.9,1.4 -1.8,2.8 -2.7,4.2 -0.1,0.1 -0.2,0.3 -0.4,0.3 -0.1,0.1 -0.3,0.1 -0.5,0.2 -0.2,0.1 -0.4,0.1 -0.6,0.1 -0.2,0 -0.5,0 -0.8,0 -0.4,0 -0.6,0 -0.9,0 -0.2,0 -0.4,-0.1 -0.6,-0.1 -0.2,0 -0.2,-0.1 -0.3,-0.2 -0.1,-0.1 -0.1,-0.2 -0.1,-0.3 l -1.4,-13.4 -6.1,13.3 c -0.1,0.1 -0.2,0.3 -0.3,0.4 -0.1,0.1 -0.2,0.2 -0.4,0.2 -0.2,0.1 -0.4,0.1 -0.7,0.1 -0.3,0 -0.6,0 -1,0 -0.4,0 -0.7,0 -1,0 -0.3,0 -0.5,-0.1 -0.7,-0.1 -0.2,-0.1 -0.3,-0.1 -0.4,-0.2 -0.1,-0.1 -0.1,-0.2 -0.1,-0.3 l -1.9,-17.3 c 0,-0.1 0,-0.2 0,-0.4 0,-0.1 0,-0.2 0,-0.3 0,-0.2 0,-0.3 0.1,-0.4 0.1,-0.1 0.1,-0.2 0.3,-0.2 0.1,-0.1 0.3,-0.1 0.5,-0.1 0.2,0 0.5,0 0.9,0 0.4,0 0.6,0 0.8,0 0.2,0 0.4,0.1 0.5,0.1 0.1,0 0.2,0.1 0.2,0.2 0,0.1 0.1,0.2 0.1,0.3 l 1.4,15.1 v 0.2 l 0.1,-0.2 6.9,-15.1 c 0.1,-0.1 0.1,-0.2 0.2,-0.3 0.1,-0.1 0.2,-0.2 0.3,-0.2 0.1,-0.1 0.3,-0.1 0.5,-0.1 0.2,0 0.5,0 0.8,0 0.3,0 0.6,0 0.8,0 0.2,0 0.4,0.1 0.5,0.1 0.1,0 0.2,0.1 0.3,0.2 0.1,0.1 0.1,0.2 0.1,0.3 l 1.5,15 v 0.2 l 0.1,-0.2 c 0.6,-1 1.2,-2 1.9,-3.2 0.6,-1.2 1.2,-2.4 1.8,-3.7 0.6,-1.3 1.1,-2.6 1.7,-4 0.5,-1.4 1,-2.7 1.4,-4 0,-0.1 0.1,-0.2 0.2,-0.3 0.1,-0.1 0.2,-0.2 0.3,-0.2 0.1,0 0.3,-0.1 0.6,-0.1 0.2,0 0.5,0 0.9,0 0.3,0 0.6,0 0.8,0 0.2,0 0.4,0 0.5,0.1 0.1,0 0.2,0.1 0.2,0.1 0,-0.3 0,-0.2 0,-0.1 z"
   id="path4328"
   inkscape:connector-curvature="0"
   style="fill:#458bca" />
		<path
   class="st3"
   d="m 434.4,123.4 c 0,0.9 -0.2,1.8 -0.6,2.5 -0.4,0.7 -1.1,1.4 -2,1.9 -0.9,0.5 -2.1,0.9 -3.5,1.2 -1.4,0.3 -3.1,0.4 -5.1,0.4 h -2.1 c -0.1,0.4 -0.2,0.9 -0.2,1.3 0,0.4 -0.1,0.8 -0.1,1.2 0,1.4 0.3,2.4 1,3.1 0.7,0.7 1.8,1.1 3.3,1.1 0.9,0 1.6,-0.1 2.3,-0.2 0.7,-0.1 1.3,-0.3 1.8,-0.4 0.5,-0.1 0.9,-0.3 1.2,-0.4 0.3,-0.1 0.5,-0.2 0.7,-0.2 0.2,0 0.2,0 0.3,0.1 0.1,0.1 0.1,0.2 0.1,0.4 0,0.1 0,0.3 0,0.5 0,0.2 -0.1,0.4 -0.1,0.6 -0.1,0.2 -0.1,0.4 -0.2,0.6 -0.1,0.2 -0.2,0.3 -0.3,0.4 -0.2,0.2 -0.4,0.3 -0.9,0.5 -0.4,0.2 -0.9,0.3 -1.5,0.4 -0.6,0.1 -1.2,0.2 -1.9,0.3 -0.7,0.1 -1.3,0.1 -2,0.1 -1.2,0 -2.3,-0.1 -3.2,-0.4 -0.9,-0.3 -1.7,-0.7 -2.3,-1.2 -0.6,-0.6 -1,-1.3 -1.3,-2.1 -0.3,-0.8 -0.4,-1.8 -0.4,-3 0,-0.9 0.1,-1.8 0.3,-2.8 0.2,-1 0.4,-2 0.8,-3 0.4,-1 0.8,-1.9 1.4,-2.8 0.6,-0.9 1.3,-1.7 2.1,-2.4 0.8,-0.7 1.7,-1.2 2.8,-1.7 1.1,-0.4 2.2,-0.6 3.6,-0.6 1.1,0 2.1,0.1 2.9,0.4 0.8,0.3 1.4,0.6 1.9,1.1 0.5,0.4 0.9,0.9 1.1,1.5 -0.1,0.6 0.1,1.1 0.1,1.6 z m -3.5,0.3 c 0,-0.7 -0.3,-1.2 -0.8,-1.7 -0.5,-0.4 -1.3,-0.6 -2.3,-0.6 -0.9,0 -1.7,0.2 -2.3,0.5 -0.7,0.3 -1.3,0.7 -1.8,1.2 -0.5,0.5 -1,1.1 -1.3,1.8 -0.4,0.7 -0.7,1.4 -0.9,2.2 h 2.1 c 1.4,0 2.6,-0.1 3.6,-0.3 1,-0.2 1.7,-0.4 2.3,-0.7 0.6,-0.3 1,-0.7 1.2,-1.1 0.1,-0.4 0.2,-0.8 0.2,-1.3 z"
   id="path4330"
   inkscape:connector-curvature="0"
   style="fill:#458bca" />
		<path
   class="st3"
   d="m 450.7,119.7 c 0,0.1 0,0.2 0,0.3 0,0.2 0,0.3 -0.1,0.5 -0.1,0.2 -0.1,0.4 -0.1,0.6 -0.1,0.2 -0.1,0.4 -0.2,0.6 -0.1,0.2 -0.2,0.3 -0.3,0.5 -0.1,0.1 -0.2,0.2 -0.3,0.2 -0.1,0 -0.2,0 -0.4,-0.1 -0.1,0 -0.3,-0.1 -0.4,-0.2 -0.2,-0.1 -0.3,-0.1 -0.5,-0.2 -0.2,0 -0.4,-0.1 -0.7,-0.1 -0.5,0 -1,0.2 -1.6,0.6 -0.6,0.4 -1.2,0.9 -1.8,1.7 -0.6,0.7 -1.1,1.5 -1.6,2.5 -0.5,1 -0.8,2 -1.1,3.1 l -1.6,8.1 c 0,0.1 -0.1,0.2 -0.1,0.3 -0.1,0.1 -0.2,0.1 -0.3,0.2 -0.1,0.1 -0.3,0.1 -0.5,0.1 -0.2,0 -0.5,0 -0.8,0 -0.3,0 -0.6,0 -0.8,0 -0.2,0 -0.4,-0.1 -0.5,-0.1 -0.1,-0.1 -0.2,-0.1 -0.2,-0.2 0,-0.1 0,-0.2 0,-0.3 l 3.6,-18.2 c 0,-0.1 0.1,-0.2 0.1,-0.3 0.1,-0.1 0.2,-0.1 0.3,-0.2 0.1,-0.1 0.3,-0.1 0.5,-0.1 0.2,0 0.4,0 0.7,0 0.3,0 0.5,0 0.7,0 0.2,0 0.3,0.1 0.4,0.1 0.1,0.1 0.2,0.1 0.2,0.2 0,0.1 0,0.2 0,0.3 l -0.7,3.3 c 0.3,-0.6 0.7,-1.1 1.1,-1.6 0.4,-0.5 0.9,-1 1.4,-1.3 0.5,-0.3 1,-0.7 1.6,-0.9 0.5,-0.2 1.1,-0.3 1.6,-0.3 0.2,0 0.5,0 0.7,0.1 0.2,0 0.5,0.1 0.7,0.1 0.2,0 0.4,0.1 0.5,0.2 0.2,0.1 0.3,0.1 0.4,0.2 0.1,0 0.1,0.2 0.1,0.3 z"
   id="path4332"
   inkscape:connector-curvature="0"
   style="fill:#458bca" />
		<path
   class="st3"
   d="m 468.4,123.4 c 0,0.9 -0.2,1.8 -0.6,2.5 -0.4,0.7 -1.1,1.4 -2,1.9 -0.9,0.5 -2.1,0.9 -3.5,1.2 -1.4,0.3 -3.1,0.4 -5.1,0.4 h -2.1 c -0.1,0.4 -0.2,0.9 -0.2,1.3 0,0.4 -0.1,0.8 -0.1,1.2 0,1.4 0.3,2.4 1,3.1 0.7,0.7 1.8,1.1 3.3,1.1 0.9,0 1.6,-0.1 2.3,-0.2 0.7,-0.1 1.3,-0.3 1.8,-0.4 0.5,-0.1 0.9,-0.3 1.2,-0.4 0.3,-0.1 0.5,-0.2 0.7,-0.2 0.1,0 0.2,0 0.3,0.1 0.1,0.1 0.1,0.2 0.1,0.4 0,0.1 0,0.3 0,0.5 0,0.2 -0.1,0.4 -0.1,0.6 -0.1,0.2 -0.1,0.4 -0.2,0.6 -0.1,0.2 -0.2,0.3 -0.3,0.4 -0.2,0.2 -0.4,0.3 -0.9,0.5 -0.4,0.2 -0.9,0.3 -1.5,0.4 -0.6,0.1 -1.2,0.2 -1.9,0.3 -0.7,0.1 -1.4,0.1 -2,0.1 -1.2,0 -2.3,-0.1 -3.2,-0.4 -0.9,-0.3 -1.7,-0.7 -2.3,-1.2 -0.6,-0.6 -1.1,-1.3 -1.3,-2.1 -0.3,-0.8 -0.4,-1.8 -0.4,-3 0,-0.9 0.1,-1.8 0.3,-2.8 0.2,-1 0.4,-2 0.8,-3 0.4,-1 0.8,-1.9 1.4,-2.8 0.6,-0.9 1.3,-1.7 2.1,-2.4 0.8,-0.7 1.7,-1.2 2.8,-1.7 1.1,-0.4 2.2,-0.6 3.6,-0.6 1.1,0 2.1,0.1 2.9,0.4 0.8,0.3 1.4,0.6 1.9,1.1 0.5,0.4 0.9,0.9 1.1,1.5 0,0.6 0.1,1.1 0.1,1.6 z m -3.4,0.3 c 0,-0.7 -0.3,-1.2 -0.8,-1.7 -0.5,-0.4 -1.3,-0.6 -2.3,-0.6 -0.9,0 -1.7,0.2 -2.3,0.5 -0.7,0.3 -1.3,0.7 -1.8,1.2 -0.5,0.5 -1,1.1 -1.3,1.8 -0.4,0.7 -0.7,1.4 -0.9,2.2 h 2.1 c 1.4,0 2.6,-0.1 3.6,-0.3 1,-0.2 1.7,-0.4 2.3,-0.7 0.6,-0.3 1,-0.7 1.2,-1.1 0,-0.4 0.2,-0.8 0.2,-1.3 z"
   id="path4334"
   inkscape:connector-curvature="0"
   style="fill:#458bca" />
		<path
   class="st3"
   d="m 485.9,137.9 c 0,0.2 -0.2,0.4 -0.4,0.5 -0.2,0.1 -0.6,0.1 -1.2,0.1 -0.3,0 -0.5,0 -0.7,0 -0.2,0 -0.3,-0.1 -0.4,-0.1 -0.1,0 -0.2,-0.1 -0.2,-0.2 0,-0.1 0,-0.2 0,-0.3 l 0.6,-3.4 c -0.2,0.4 -0.5,0.9 -1,1.4 -0.5,0.5 -1,1 -1.6,1.4 -0.6,0.4 -1.3,0.8 -2.1,1.1 -0.8,0.3 -1.6,0.4 -2.3,0.4 -0.8,0 -1.5,-0.1 -2.1,-0.3 -0.6,-0.2 -1.1,-0.5 -1.5,-0.8 -0.4,-0.4 -0.7,-0.8 -1,-1.2 -0.2,-0.5 -0.4,-0.9 -0.6,-1.4 -0.1,-0.5 -0.2,-1 -0.3,-1.5 0,-0.5 -0.1,-1 -0.1,-1.4 0,-0.8 0.1,-1.7 0.2,-2.6 0.1,-1 0.4,-1.9 0.7,-2.9 0.3,-1 0.7,-1.9 1.2,-2.9 0.5,-0.9 1.1,-1.8 1.8,-2.5 0.7,-0.7 1.5,-1.3 2.5,-1.8 0.9,-0.4 2,-0.7 3.2,-0.7 0.6,0 1.1,0.1 1.6,0.2 0.5,0.1 1,0.3 1.4,0.5 0.4,0.2 0.8,0.5 1.2,0.8 0.4,0.3 0.7,0.6 1,1 L 488,111 c 0,-0.1 0.1,-0.2 0.1,-0.3 0.1,-0.1 0.2,-0.2 0.3,-0.2 0.1,0 0.3,-0.1 0.5,-0.1 0.2,0 0.5,-0.1 0.8,-0.1 0.3,0 0.6,0 0.8,0.1 0.2,0 0.4,0.1 0.5,0.1 0.1,0 0.2,0.1 0.2,0.2 0,0.1 0,0.2 0,0.3 z m -0.6,-13.4 c -0.6,-0.9 -1.3,-1.6 -2.1,-2.1 -0.7,-0.5 -1.6,-0.7 -2.5,-0.7 -0.7,0 -1.4,0.2 -1.9,0.5 -0.6,0.3 -1.1,0.8 -1.5,1.3 -0.5,0.6 -0.9,1.2 -1.2,1.9 -0.3,0.7 -0.6,1.5 -0.8,2.2 -0.2,0.8 -0.4,1.5 -0.5,2.3 -0.1,0.7 -0.2,1.4 -0.2,2 0,1.3 0.2,2.3 0.7,3 0.4,0.7 1.2,1 2.1,1 0.7,0 1.5,-0.2 2.2,-0.6 0.7,-0.4 1.4,-1 2.1,-1.7 0.6,-0.7 1.2,-1.6 1.7,-2.6 0.5,-1 0.9,-2.1 1.1,-3.2 z"
   id="path4336"
   inkscape:connector-curvature="0"
   style="fill:#458bca" />
		<path
   class="st3"
   d="m 519.9,125.4 c 0,0.8 -0.1,1.7 -0.2,2.7 -0.1,1 -0.4,2 -0.7,3 -0.3,1 -0.7,2 -1.2,2.9 -0.5,0.9 -1.1,1.8 -1.8,2.5 -0.7,0.7 -1.6,1.3 -2.5,1.7 -0.9,0.4 -2,0.7 -3.2,0.7 -1.2,0 -2.3,-0.2 -3.1,-0.7 -0.9,-0.5 -1.6,-1.1 -2.3,-2 l -0.4,1.8 c 0,0.2 -0.2,0.4 -0.4,0.5 -0.3,0.1 -0.7,0.1 -1.2,0.1 -0.6,0 -0.9,-0.1 -1.1,-0.2 -0.2,-0.1 -0.3,-0.3 -0.2,-0.5 l 5.4,-27.1 c 0,-0.1 0.1,-0.2 0.1,-0.3 0.1,-0.1 0.2,-0.1 0.3,-0.2 0.1,-0.1 0.3,-0.1 0.5,-0.1 0.2,0 0.5,0 0.8,0 0.3,0 0.6,0 0.8,0 0.2,0 0.4,0.1 0.5,0.1 0.1,0.1 0.2,0.1 0.2,0.2 0,0.1 0,0.2 0,0.3 l -1.6,8.1 c -0.1,0.4 -0.1,0.7 -0.2,1.1 -0.1,0.4 -0.2,0.8 -0.3,1.1 -0.1,0.4 -0.2,0.7 -0.3,1.1 -0.1,0.3 -0.2,0.6 -0.3,0.9 0.2,-0.5 0.6,-1 1,-1.5 0.5,-0.5 1,-1 1.6,-1.4 0.6,-0.4 1.3,-0.8 2.1,-1.1 0.7,-0.3 1.5,-0.4 2.2,-0.4 0.8,0 1.5,0.1 2.1,0.3 0.6,0.2 1.1,0.5 1.5,0.9 0.4,0.4 0.7,0.8 1,1.2 0.2,0.5 0.4,0.9 0.6,1.4 0.1,0.5 0.2,1 0.3,1.4 0,0.7 0,1.1 0,1.5 z m -3.5,0.3 c 0,-0.4 0,-0.8 -0.1,-1.3 -0.1,-0.5 -0.2,-0.9 -0.4,-1.3 -0.2,-0.4 -0.5,-0.7 -0.9,-1 -0.4,-0.3 -0.9,-0.4 -1.5,-0.4 -0.7,0 -1.5,0.2 -2.2,0.6 -0.8,0.4 -1.5,1 -2.1,1.7 -0.6,0.7 -1.2,1.6 -1.7,2.6 -0.5,1 -0.9,2.1 -1.1,3.3 l -0.7,3.4 c 0.6,0.9 1.3,1.6 2,2.1 0.7,0.5 1.6,0.7 2.5,0.7 0.7,0 1.3,-0.2 1.9,-0.5 0.6,-0.3 1.1,-0.8 1.5,-1.3 0.5,-0.5 0.9,-1.2 1.2,-1.9 0.3,-0.7 0.6,-1.4 0.8,-2.2 0.2,-0.8 0.4,-1.5 0.5,-2.3 0.1,-0.8 0.3,-1.5 0.3,-2.2 z"
   id="path4338"
   inkscape:connector-curvature="0"
   style="fill:#458bca" />
		<path
   class="st3"
   d="m 540.3,119.6 c 0,0.1 0,0.3 0,0.5 0,0.2 -0.1,0.3 -0.1,0.4 -0.4,1.2 -0.9,2.5 -1.5,3.8 -0.6,1.3 -1.1,2.7 -1.8,4.2 -0.7,1.5 -1.5,3 -2.5,4.5 -0.9,1.6 -2.1,3.2 -3.4,5 l -5.2,7.1 c -0.1,0.1 -0.2,0.2 -0.3,0.3 -0.1,0.1 -0.3,0.2 -0.4,0.2 -0.2,0.1 -0.4,0.1 -0.6,0.1 -0.2,0 -0.5,0 -0.9,0 -0.4,0 -0.7,0 -0.9,-0.1 -0.2,0 -0.4,-0.1 -0.5,-0.2 -0.1,-0.1 -0.2,-0.2 -0.2,-0.3 0,-0.1 0.1,-0.3 0.2,-0.5 l 4.9,-6.3 -3,-17.8 c 0,-0.2 0,-0.3 -0.1,-0.4 -0.1,-0.1 0,-0.2 0,-0.3 0,-0.1 0,-0.3 0.1,-0.4 0,-0.1 0.1,-0.2 0.3,-0.2 0.1,-0.1 0.3,-0.1 0.5,-0.1 0.2,0 0.5,0 0.8,0 0.4,0 0.7,0 0.9,0 0.2,0 0.4,0.1 0.5,0.1 0.1,0 0.2,0.1 0.2,0.2 0,0.1 0.1,0.2 0.1,0.3 l 2.4,14.9 v 0 c 0.8,-1.2 1.6,-2.4 2.3,-3.6 0.7,-1.2 1.3,-2.4 1.9,-3.7 0.6,-1.3 1.1,-2.5 1.6,-3.8 0.5,-1.3 0.9,-2.6 1.3,-3.9 0,-0.1 0.1,-0.2 0.2,-0.3 0.1,-0.1 0.2,-0.1 0.3,-0.2 0.1,-0.1 0.3,-0.1 0.6,-0.1 0.2,0 0.5,0 0.9,0 0.6,0 1,0 1.2,0.1 0.1,0.2 0.2,0.3 0.2,0.5 z"
   id="path4340"
   inkscape:connector-curvature="0"
   style="fill:#458bca" />
		<path
   class="st3"
   d="m 554.6,137.9 c 0,0.1 -0.1,0.2 -0.1,0.3 -0.1,0.1 -0.2,0.1 -0.3,0.2 -0.1,0 -0.3,0.1 -0.6,0.1 -0.2,0 -0.5,0.1 -0.8,0.1 -0.4,0 -0.6,0 -0.9,-0.1 -0.2,0 -0.4,-0.1 -0.5,-0.1 -0.1,0 -0.2,-0.1 -0.2,-0.2 0,-0.1 0,-0.2 0,-0.3 l 5,-25.2 c 0,-0.1 0.1,-0.2 0.2,-0.3 0.1,-0.1 0.2,-0.1 0.4,-0.2 0.1,0 0.3,-0.1 0.6,-0.1 0.2,0 0.5,-0.1 0.8,-0.1 0.3,0 0.6,0 0.8,0.1 0.2,0 0.4,0.1 0.5,0.1 0.1,0 0.2,0.1 0.3,0.2 0,0.1 0,0.2 0,0.3 z"
   id="path4342"
   inkscape:connector-curvature="0"
   style="fill:#458bca" />
		<path
   class="st3"
   d="m 581.5,137 c 0,0.3 -0.1,0.5 -0.2,0.7 -0.1,0.2 -0.3,0.3 -0.4,0.5 -0.2,0.1 -0.3,0.2 -0.5,0.3 -0.2,0.1 -0.4,0.1 -0.5,0.1 h -1.3 c -0.4,0 -0.6,0 -0.9,-0.1 -0.2,-0.1 -0.5,-0.2 -0.6,-0.4 -0.2,-0.2 -0.3,-0.5 -0.5,-0.8 -0.1,-0.3 -0.3,-0.7 -0.5,-1.2 l -4.9,-14 c -0.3,-1 -0.7,-2 -1,-3 -0.3,-1 -0.7,-2 -1,-3 v 0 c -0.2,1.1 -0.4,2.2 -0.6,3.3 -0.2,1.1 -0.4,2.2 -0.6,3.3 l -3,15.3 c 0,0.1 -0.1,0.2 -0.2,0.3 -0.1,0.1 -0.2,0.1 -0.3,0.2 -0.1,0 -0.3,0.1 -0.5,0.1 -0.2,0 -0.5,0.1 -0.8,0.1 -0.3,0 -0.6,0 -0.8,-0.1 -0.2,0 -0.4,-0.1 -0.5,-0.1 -0.1,0 -0.2,-0.1 -0.2,-0.2 0,-0.1 0,-0.2 0,-0.3 l 4.8,-24.2 c 0.1,-0.5 0.3,-0.9 0.7,-1.2 0.3,-0.2 0.7,-0.3 1,-0.3 h 1.6 c 0.3,0 0.6,0 0.9,0.1 0.2,0.1 0.5,0.2 0.6,0.4 0.2,0.2 0.3,0.4 0.5,0.7 0.1,0.3 0.3,0.6 0.4,1.1 l 5,14.2 c 0.3,0.9 0.6,1.8 0.9,2.6 0.3,0.9 0.6,1.8 0.9,2.7 v 0 c 0.2,-1.1 0.4,-2.3 0.6,-3.4 0.2,-1.2 0.4,-2.3 0.7,-3.4 l 2.9,-14.2 c 0,-0.1 0.1,-0.2 0.1,-0.3 0.1,-0.1 0.2,-0.1 0.3,-0.2 0.1,-0.1 0.3,-0.1 0.5,-0.1 0.2,0 0.5,0 0.8,0 0.3,0 0.6,0 0.8,0 0.2,0 0.4,0.1 0.5,0.1 0.1,0.1 0.2,0.1 0.2,0.2 0,0.1 0.1,0.2 0,0.3 z"
   id="path4344"
   inkscape:connector-curvature="0"
   style="fill:#458bca" />
		<path
   class="st3"
   d="m 608.2,137 c 0,0.3 -0.1,0.5 -0.2,0.7 -0.1,0.2 -0.3,0.3 -0.4,0.5 -0.2,0.1 -0.3,0.2 -0.5,0.3 -0.2,0.1 -0.4,0.1 -0.5,0.1 h -1.3 c -0.4,0 -0.6,0 -0.9,-0.1 -0.2,-0.1 -0.5,-0.2 -0.6,-0.4 -0.2,-0.2 -0.3,-0.5 -0.5,-0.8 -0.1,-0.3 -0.3,-0.7 -0.5,-1.2 l -4.9,-14 c -0.3,-1 -0.7,-2 -1,-3 -0.3,-1 -0.7,-2 -1,-3 v 0 c -0.2,1.1 -0.4,2.2 -0.6,3.3 -0.2,1.1 -0.4,2.2 -0.6,3.3 l -3,15.3 c 0,0.1 -0.1,0.2 -0.2,0.3 -0.1,0.1 -0.2,0.1 -0.3,0.2 -0.1,0 -0.3,0.1 -0.5,0.1 -0.2,0 -0.5,0.1 -0.8,0.1 -0.3,0 -0.6,0 -0.8,-0.1 -0.2,0 -0.4,-0.1 -0.5,-0.1 -0.1,0 -0.2,-0.1 -0.2,-0.2 0,-0.1 0,-0.2 0,-0.3 l 4.8,-24.2 c 0.1,-0.5 0.3,-0.9 0.7,-1.2 0.3,-0.2 0.7,-0.3 1,-0.3 h 1.6 c 0.3,0 0.6,0 0.9,0.1 0.2,0.1 0.5,0.2 0.6,0.4 0.2,0.2 0.3,0.4 0.5,0.7 0.1,0.3 0.3,0.6 0.4,1.1 l 5,14.2 c 0.3,0.9 0.6,1.8 0.9,2.6 0.3,0.9 0.6,1.8 0.9,2.7 v 0 c 0.2,-1.1 0.4,-2.3 0.6,-3.4 0.2,-1.2 0.4,-2.3 0.7,-3.4 l 2.9,-14.2 c 0,-0.1 0.1,-0.2 0.1,-0.3 0.1,-0.1 0.2,-0.1 0.3,-0.2 0.1,-0.1 0.3,-0.1 0.5,-0.1 0.2,0 0.5,0 0.8,0 0.3,0 0.6,0 0.8,0 0.2,0 0.4,0.1 0.5,0.1 0.1,0.1 0.2,0.1 0.2,0.2 0,0.1 0.1,0.2 0,0.3 z"
   id="path4346"
   inkscape:connector-curvature="0"
   style="fill:#458bca" />
		<path
   class="st3"
   d="m 639.6,121 c 0,1 -0.1,2.2 -0.3,3.5 -0.2,1.3 -0.5,2.6 -1,3.9 -0.5,1.3 -1,2.6 -1.8,3.9 -0.7,1.2 -1.6,2.4 -2.7,3.3 -1.1,1 -2.4,1.7 -3.8,2.3 -1.5,0.6 -3.2,0.9 -5.1,0.9 -1.5,0 -2.9,-0.2 -4,-0.6 -1.1,-0.4 -2.1,-1 -2.9,-1.7 -0.8,-0.8 -1.4,-1.7 -1.8,-2.8 -0.4,-1.1 -0.6,-2.4 -0.6,-3.9 0,-1.2 0.1,-2.4 0.3,-3.7 0.2,-1.3 0.5,-2.7 1,-4 0.5,-1.3 1.1,-2.6 1.8,-3.8 0.7,-1.2 1.7,-2.3 2.8,-3.3 1.1,-1 2.4,-1.7 3.8,-2.3 1.5,-0.6 3.1,-0.8 5,-0.8 1.5,0 2.9,0.2 4,0.6 1.1,0.4 2.1,1 2.9,1.8 0.8,0.8 1.4,1.7 1.8,2.9 0.4,1 0.6,2.3 0.6,3.8 z m -3.7,0.3 c 0,-0.9 -0.1,-1.8 -0.3,-2.6 -0.2,-0.8 -0.6,-1.5 -1,-2 -0.5,-0.6 -1.1,-1 -1.9,-1.3 -0.8,-0.3 -1.7,-0.5 -2.8,-0.5 -1.4,0 -2.6,0.3 -3.7,0.8 -1.1,0.5 -2,1.2 -2.8,2 -0.8,0.8 -1.4,1.8 -1.9,2.8 -0.5,1.1 -0.9,2.1 -1.2,3.2 -0.3,1.1 -0.5,2.1 -0.6,3.1 -0.1,1 -0.2,1.9 -0.2,2.6 0,1 0.1,1.8 0.3,2.6 0.2,0.8 0.6,1.4 1,2 0.5,0.6 1.1,1 1.9,1.3 0.8,0.3 1.7,0.5 2.8,0.5 1.4,0 2.6,-0.3 3.7,-0.8 1.1,-0.5 2,-1.2 2.7,-2 0.8,-0.8 1.4,-1.8 1.9,-2.8 0.5,-1 0.9,-2.1 1.2,-3.2 0.3,-1.1 0.5,-2.1 0.7,-3.1 0.1,-1 0.2,-1.9 0.2,-2.6 z"
   id="path4348"
   inkscape:connector-curvature="0"
   style="fill:#458bca" />
		<path
   class="st3"
   d="m 652.8,137.8 c -0.1,0.1 -0.2,0.3 -0.3,0.4 -0.1,0.1 -0.2,0.2 -0.4,0.2 -0.2,0 -0.4,0.1 -0.7,0.1 -0.3,0 -0.6,0 -1,0 -0.4,0 -0.8,0 -1.1,0 -0.3,0 -0.5,-0.1 -0.7,-0.1 -0.2,0 -0.3,-0.1 -0.4,-0.2 -0.1,-0.1 -0.1,-0.2 -0.1,-0.4 l -3.7,-24.5 c 0,-0.3 -0.1,-0.5 -0.1,-0.6 0,-0.2 0.1,-0.3 0.2,-0.4 0.1,-0.1 0.3,-0.1 0.5,-0.2 0.2,0 0.6,0 1,0 0.4,0 0.7,0 1,0 0.2,0 0.4,0.1 0.6,0.1 0.1,0.1 0.2,0.1 0.3,0.2 0,0.1 0.1,0.2 0.1,0.3 l 3.1,22 v 0 l 11.7,-22.1 c 0.1,-0.1 0.1,-0.2 0.2,-0.3 0.1,-0.1 0.2,-0.2 0.4,-0.2 0.1,-0.1 0.3,-0.1 0.6,-0.1 0.2,0 0.6,0 1,0 0.4,0 0.7,0 1,0.1 0.3,0.1 0.4,0.1 0.5,0.2 0.1,0.1 0.1,0.2 0.1,0.4 0,0.2 -0.1,0.4 -0.3,0.7 z"
   id="path4350"
   inkscape:connector-curvature="0"
   style="fill:#458bca" />
		<path
   class="st3"
   d="m 685.4,137.2 c 0,0.3 0.1,0.5 0,0.7 0,0.2 -0.1,0.3 -0.2,0.4 -0.1,0.1 -0.3,0.2 -0.6,0.2 -0.3,0 -0.6,0 -1.1,0 -0.3,0 -0.6,0 -0.8,0 -0.2,0 -0.4,-0.1 -0.5,-0.1 -0.1,0 -0.2,-0.1 -0.3,-0.2 -0.1,-0.1 -0.1,-0.2 -0.1,-0.3 l -1,-6.4 h -10.9 l -3.4,6.3 c -0.1,0.1 -0.1,0.2 -0.2,0.3 -0.1,0.1 -0.2,0.2 -0.4,0.2 -0.2,0.1 -0.4,0.1 -0.6,0.1 -0.3,0 -0.6,0 -0.9,0 -0.4,0 -0.7,0 -1,-0.1 -0.2,0 -0.4,-0.1 -0.5,-0.2 -0.1,-0.1 -0.1,-0.2 -0.1,-0.4 0,-0.2 0.1,-0.4 0.3,-0.7 l 13.6,-24.3 c 0.1,-0.1 0.2,-0.3 0.3,-0.4 0.1,-0.1 0.2,-0.2 0.4,-0.2 0.2,-0.1 0.4,-0.1 0.7,-0.1 0.3,0 0.6,0 1,0 0.4,0 0.8,0 1.1,0 0.3,0 0.5,0.1 0.7,0.1 0.2,0.1 0.3,0.1 0.4,0.2 0.1,0.1 0.1,0.2 0.1,0.4 z m -6.8,-21.5 v 0 l -7.1,13.1 h 9.1 z"
   id="path4352"
   inkscape:connector-curvature="0"
   style="fill:#458bca" />
		<path
   class="st3"
   d="m 706.6,114.2 c 0,0.1 0,0.2 0,0.4 0,0.1 0,0.3 -0.1,0.4 0,0.2 -0.1,0.3 -0.1,0.5 0,0.2 -0.1,0.3 -0.2,0.4 -0.1,0.1 -0.1,0.2 -0.2,0.3 -0.1,0.1 -0.2,0.1 -0.3,0.1 -0.1,0 -0.4,-0.1 -0.6,-0.3 -0.3,-0.2 -0.6,-0.4 -1,-0.6 -0.4,-0.2 -0.9,-0.4 -1.5,-0.6 -0.6,-0.2 -1.2,-0.3 -2,-0.3 -0.8,0 -1.5,0.1 -2.2,0.4 -0.6,0.2 -1.1,0.6 -1.6,1 -0.4,0.4 -0.7,0.9 -0.9,1.4 -0.2,0.5 -0.3,1.1 -0.3,1.7 0,0.6 0.1,1.1 0.4,1.6 0.3,0.4 0.6,0.9 1,1.2 0.4,0.4 0.9,0.7 1.5,1 0.5,0.3 1.1,0.7 1.7,1 0.6,0.3 1.1,0.7 1.7,1.1 0.6,0.4 1,0.8 1.5,1.3 0.5,0.5 0.8,1.1 1,1.7 0.3,0.7 0.4,1.4 0.4,2.3 0,1.1 -0.2,2.2 -0.7,3.2 -0.5,1 -1.1,1.9 -2,2.6 -0.9,0.7 -1.9,1.3 -3.1,1.8 -1.2,0.4 -2.6,0.7 -4.1,0.7 -0.8,0 -1.6,-0.1 -2.3,-0.2 -0.7,-0.1 -1.3,-0.3 -1.9,-0.5 -0.6,-0.2 -1,-0.4 -1.4,-0.6 -0.4,-0.2 -0.7,-0.4 -0.9,-0.6 -0.2,-0.2 -0.3,-0.4 -0.3,-0.8 0,-0.1 0,-0.2 0,-0.3 0,-0.1 0.1,-0.3 0.1,-0.5 0,-0.2 0.1,-0.3 0.1,-0.5 0,-0.2 0.1,-0.3 0.2,-0.5 0.1,-0.1 0.2,-0.3 0.2,-0.3 0.1,-0.1 0.2,-0.1 0.3,-0.1 0.2,0 0.5,0.1 0.8,0.3 0.3,0.2 0.7,0.4 1.2,0.7 0.5,0.2 1,0.5 1.7,0.7 0.7,0.2 1.4,0.3 2.3,0.3 0.9,0 1.8,-0.1 2.5,-0.4 0.7,-0.3 1.4,-0.6 1.9,-1.1 0.5,-0.5 0.9,-1 1.2,-1.6 0.3,-0.6 0.4,-1.3 0.4,-1.9 0,-0.6 -0.1,-1.1 -0.4,-1.6 -0.3,-0.5 -0.6,-0.9 -1,-1.2 -0.4,-0.4 -0.9,-0.7 -1.4,-1 -0.5,-0.3 -1.1,-0.6 -1.7,-1 -0.6,-0.3 -1.1,-0.7 -1.7,-1.1 -0.5,-0.4 -1,-0.8 -1.4,-1.3 -0.4,-0.5 -0.8,-1.1 -1,-1.7 -0.2,-0.6 -0.4,-1.4 -0.4,-2.3 0,-1.1 0.2,-2.1 0.6,-3 0.4,-0.9 1,-1.7 1.8,-2.5 0.8,-0.7 1.7,-1.3 2.8,-1.7 1.1,-0.4 2.3,-0.6 3.7,-0.6 0.6,0 1.3,0.1 1.9,0.2 0.6,0.1 1.1,0.2 1.6,0.4 0.5,0.2 0.9,0.3 1.2,0.5 0.3,0.2 0.6,0.3 0.7,0.5 0.1,0.1 0.2,0.2 0.3,0.4 0,0.3 0,0.4 0,0.6 z"
   id="path4354"
   inkscape:connector-curvature="0"
   style="fill:#458bca" />
	</g>
</g>
</svg>